<mxfile host="app.diagrams.net" modified="2021-08-05T11:47:21.458Z" agent="5.0 (Macintosh; Intel Mac OS X 10_15_7) AppleWebKit/537.36 (KHTML, like Gecko) Chrome/92.0.4515.107 Safari/537.36" etag="0xxn1bg3nejc0E4nIBbr" version="14.9.4" type="github">
  <diagram id="C5RBs43oDa-KdzZeNtuy" name="Page-1">
    <mxGraphModel dx="783" dy="532" grid="1" gridSize="10" guides="1" tooltips="1" connect="1" arrows="1" fold="1" page="1" pageScale="1" pageWidth="827" pageHeight="1169" math="0" shadow="0">
      <root>
        <mxCell id="WIyWlLk6GJQsqaUBKTNV-0" />
        <mxCell id="WIyWlLk6GJQsqaUBKTNV-1" parent="WIyWlLk6GJQsqaUBKTNV-0" />
        <mxCell id="5RLQBA7PYhz8EoI9WXOL-0" value="" style="rounded=0;html=1;jettySize=auto;orthogonalLoop=1;fontSize=11;endArrow=block;endFill=0;endSize=8;strokeWidth=1;shadow=0;labelBackgroundColor=none;edgeStyle=orthogonalEdgeStyle;" edge="1" parent="WIyWlLk6GJQsqaUBKTNV-1" source="5RLQBA7PYhz8EoI9WXOL-2" target="5RLQBA7PYhz8EoI9WXOL-5">
          <mxGeometry relative="1" as="geometry" />
        </mxCell>
        <mxCell id="5RLQBA7PYhz8EoI9WXOL-1" value="查询单次执行任务表，筛选一分钟以内插入的任务" style="edgeLabel;html=1;align=center;verticalAlign=middle;resizable=0;points=[];fontSize=9;" vertex="1" connectable="0" parent="5RLQBA7PYhz8EoI9WXOL-0">
          <mxGeometry x="-0.2636" y="2" relative="1" as="geometry">
            <mxPoint as="offset" />
          </mxGeometry>
        </mxCell>
        <mxCell id="5RLQBA7PYhz8EoI9WXOL-2" value="分钟级定时任务" style="rounded=1;whiteSpace=wrap;html=1;fontSize=12;glass=0;strokeWidth=1;shadow=0;" vertex="1" parent="WIyWlLk6GJQsqaUBKTNV-1">
          <mxGeometry x="304" y="54" width="120" height="40" as="geometry" />
        </mxCell>
        <mxCell id="5RLQBA7PYhz8EoI9WXOL-4" value="No" style="edgeStyle=orthogonalEdgeStyle;rounded=0;html=1;jettySize=auto;orthogonalLoop=1;fontSize=11;endArrow=block;endFill=0;endSize=8;strokeWidth=1;shadow=0;labelBackgroundColor=none;" edge="1" parent="WIyWlLk6GJQsqaUBKTNV-1" source="5RLQBA7PYhz8EoI9WXOL-5" target="5RLQBA7PYhz8EoI9WXOL-6">
          <mxGeometry y="10" relative="1" as="geometry">
            <mxPoint as="offset" />
          </mxGeometry>
        </mxCell>
        <mxCell id="5RLQBA7PYhz8EoI9WXOL-35" value="Yes" style="edgeStyle=orthogonalEdgeStyle;rounded=0;orthogonalLoop=1;jettySize=auto;html=1;entryX=0.5;entryY=0;entryDx=0;entryDy=0;" edge="1" parent="WIyWlLk6GJQsqaUBKTNV-1" source="5RLQBA7PYhz8EoI9WXOL-5" target="5RLQBA7PYhz8EoI9WXOL-30">
          <mxGeometry relative="1" as="geometry" />
        </mxCell>
        <mxCell id="5RLQBA7PYhz8EoI9WXOL-5" value="是否存在需要立即执行的任务" style="rhombus;whiteSpace=wrap;html=1;shadow=0;fontFamily=Helvetica;fontSize=12;align=center;strokeWidth=1;spacing=6;spacingTop=-4;" vertex="1" parent="WIyWlLk6GJQsqaUBKTNV-1">
          <mxGeometry x="307" y="139" width="114" height="63" as="geometry" />
        </mxCell>
        <mxCell id="5RLQBA7PYhz8EoI9WXOL-6" value="结束" style="rounded=1;whiteSpace=wrap;html=1;fontSize=12;glass=0;strokeWidth=1;shadow=0;opacity=90;" vertex="1" parent="WIyWlLk6GJQsqaUBKTNV-1">
          <mxGeometry x="471" y="150.5" width="70" height="40" as="geometry" />
        </mxCell>
        <mxCell id="5RLQBA7PYhz8EoI9WXOL-7" style="edgeStyle=orthogonalEdgeStyle;rounded=0;orthogonalLoop=1;jettySize=auto;html=1;entryX=1;entryY=0.5;entryDx=0;entryDy=0;fontSize=9;" edge="1" parent="WIyWlLk6GJQsqaUBKTNV-1" source="5RLQBA7PYhz8EoI9WXOL-11" target="5RLQBA7PYhz8EoI9WXOL-15">
          <mxGeometry relative="1" as="geometry" />
        </mxCell>
        <mxCell id="5RLQBA7PYhz8EoI9WXOL-8" value="对账" style="edgeLabel;html=1;align=center;verticalAlign=middle;resizable=0;points=[];fontSize=9;" vertex="1" connectable="0" parent="5RLQBA7PYhz8EoI9WXOL-7">
          <mxGeometry x="0.1012" y="-1" relative="1" as="geometry">
            <mxPoint as="offset" />
          </mxGeometry>
        </mxCell>
        <mxCell id="5RLQBA7PYhz8EoI9WXOL-9" style="edgeStyle=orthogonalEdgeStyle;rounded=0;orthogonalLoop=1;jettySize=auto;html=1;entryX=0;entryY=0.5;entryDx=0;entryDy=0;fontSize=9;" edge="1" parent="WIyWlLk6GJQsqaUBKTNV-1" source="5RLQBA7PYhz8EoI9WXOL-11" target="5RLQBA7PYhz8EoI9WXOL-13">
          <mxGeometry relative="1" as="geometry" />
        </mxCell>
        <mxCell id="5RLQBA7PYhz8EoI9WXOL-10" value="&lt;span style=&quot;font-size: 11px ; background-color: rgb(248 , 249 , 250)&quot;&gt;数据提取/状态补齐&lt;/span&gt;" style="edgeLabel;html=1;align=center;verticalAlign=middle;resizable=0;points=[];fontSize=9;" vertex="1" connectable="0" parent="5RLQBA7PYhz8EoI9WXOL-9">
          <mxGeometry x="-0.1961" y="1" relative="1" as="geometry">
            <mxPoint as="offset" />
          </mxGeometry>
        </mxCell>
        <mxCell id="5RLQBA7PYhz8EoI9WXOL-11" value="判断任务类型" style="rhombus;whiteSpace=wrap;html=1;shadow=0;fontFamily=Helvetica;fontSize=12;align=center;strokeWidth=1;spacing=6;spacingTop=-4;" vertex="1" parent="WIyWlLk6GJQsqaUBKTNV-1">
          <mxGeometry x="314" y="281.5" width="100" height="63" as="geometry" />
        </mxCell>
        <mxCell id="5RLQBA7PYhz8EoI9WXOL-12" style="edgeStyle=orthogonalEdgeStyle;rounded=0;orthogonalLoop=1;jettySize=auto;html=1;exitX=0.5;exitY=1;exitDx=0;exitDy=0;entryX=0.5;entryY=0;entryDx=0;entryDy=0;fontSize=9;" edge="1" parent="WIyWlLk6GJQsqaUBKTNV-1" source="5RLQBA7PYhz8EoI9WXOL-13" target="5RLQBA7PYhz8EoI9WXOL-21">
          <mxGeometry relative="1" as="geometry" />
        </mxCell>
        <mxCell id="5RLQBA7PYhz8EoI9WXOL-13" value="MySQL用户权限检查/&lt;br&gt;文件目录检查(防止回溯)" style="rounded=1;whiteSpace=wrap;html=1;fontSize=12;glass=0;strokeWidth=1;shadow=0;" vertex="1" parent="WIyWlLk6GJQsqaUBKTNV-1">
          <mxGeometry x="534" y="293" width="136" height="40" as="geometry" />
        </mxCell>
        <mxCell id="5RLQBA7PYhz8EoI9WXOL-14" style="edgeStyle=orthogonalEdgeStyle;rounded=0;orthogonalLoop=1;jettySize=auto;html=1;entryX=0.5;entryY=0;entryDx=0;entryDy=0;fontSize=9;" edge="1" parent="WIyWlLk6GJQsqaUBKTNV-1" source="5RLQBA7PYhz8EoI9WXOL-15" target="5RLQBA7PYhz8EoI9WXOL-17">
          <mxGeometry relative="1" as="geometry" />
        </mxCell>
        <mxCell id="5RLQBA7PYhz8EoI9WXOL-15" value="MySQL用户权限检查/&lt;br&gt;文件目录检查(防止回溯)" style="rounded=1;whiteSpace=wrap;html=1;fontSize=12;glass=0;strokeWidth=1;shadow=0;" vertex="1" parent="WIyWlLk6GJQsqaUBKTNV-1">
          <mxGeometry x="90" y="293" width="136" height="40" as="geometry" />
        </mxCell>
        <mxCell id="5RLQBA7PYhz8EoI9WXOL-16" style="edgeStyle=orthogonalEdgeStyle;rounded=0;orthogonalLoop=1;jettySize=auto;html=1;entryX=0.5;entryY=0;entryDx=0;entryDy=0;fontSize=9;" edge="1" parent="WIyWlLk6GJQsqaUBKTNV-1" source="5RLQBA7PYhz8EoI9WXOL-17" target="5RLQBA7PYhz8EoI9WXOL-19">
          <mxGeometry relative="1" as="geometry" />
        </mxCell>
        <mxCell id="5RLQBA7PYhz8EoI9WXOL-17" value="解析对账配置&lt;br&gt;构造数据源&lt;br&gt;" style="rounded=1;whiteSpace=wrap;html=1;fontSize=9;opacity=90;" vertex="1" parent="WIyWlLk6GJQsqaUBKTNV-1">
          <mxGeometry x="93" y="360" width="130" height="40" as="geometry" />
        </mxCell>
        <mxCell id="5RLQBA7PYhz8EoI9WXOL-18" style="edgeStyle=orthogonalEdgeStyle;rounded=0;orthogonalLoop=1;jettySize=auto;html=1;entryX=0;entryY=0.5;entryDx=0;entryDy=0;fontSize=9;" edge="1" parent="WIyWlLk6GJQsqaUBKTNV-1" source="5RLQBA7PYhz8EoI9WXOL-19" target="5RLQBA7PYhz8EoI9WXOL-25">
          <mxGeometry relative="1" as="geometry" />
        </mxCell>
        <mxCell id="5RLQBA7PYhz8EoI9WXOL-19" value="&lt;span style=&quot;color: rgb(0 , 0 , 0) ; font-family: &amp;#34;helvetica&amp;#34; ; font-size: 9px ; font-style: normal ; font-weight: 400 ; letter-spacing: normal ; text-align: center ; text-indent: 0px ; text-transform: none ; word-spacing: 0px ; background-color: rgb(248 , 249 , 250) ; display: inline ; float: none&quot;&gt;进行对账&lt;/span&gt;&lt;br style=&quot;color: rgb(0 , 0 , 0) ; font-family: &amp;#34;helvetica&amp;#34; ; font-size: 9px ; font-style: normal ; font-weight: 400 ; letter-spacing: normal ; text-align: center ; text-indent: 0px ; text-transform: none ; word-spacing: 0px ; background-color: rgb(248 , 249 , 250)&quot;&gt;&lt;span style=&quot;color: rgb(0 , 0 , 0) ; font-family: &amp;#34;helvetica&amp;#34; ; font-size: 9px ; font-style: normal ; font-weight: 400 ; letter-spacing: normal ; text-align: center ; text-indent: 0px ; text-transform: none ; word-spacing: 0px ; background-color: rgb(248 , 249 , 250) ; display: inline ; float: none&quot;&gt;根据配置统计其他数据&lt;/span&gt;" style="rounded=1;whiteSpace=wrap;html=1;fontSize=9;opacity=90;" vertex="1" parent="WIyWlLk6GJQsqaUBKTNV-1">
          <mxGeometry x="92.25" y="430" width="131.5" height="40" as="geometry" />
        </mxCell>
        <mxCell id="5RLQBA7PYhz8EoI9WXOL-20" style="edgeStyle=orthogonalEdgeStyle;rounded=0;orthogonalLoop=1;jettySize=auto;html=1;entryX=1;entryY=0.5;entryDx=0;entryDy=0;fontSize=9;" edge="1" parent="WIyWlLk6GJQsqaUBKTNV-1" source="5RLQBA7PYhz8EoI9WXOL-21" target="5RLQBA7PYhz8EoI9WXOL-25">
          <mxGeometry relative="1" as="geometry" />
        </mxCell>
        <mxCell id="5RLQBA7PYhz8EoI9WXOL-21" value="统计原始数据上报&lt;br&gt;或导出至文件" style="rounded=1;whiteSpace=wrap;html=1;fontSize=9;opacity=90;" vertex="1" parent="WIyWlLk6GJQsqaUBKTNV-1">
          <mxGeometry x="541" y="430" width="122" height="40" as="geometry" />
        </mxCell>
        <mxCell id="5RLQBA7PYhz8EoI9WXOL-22" style="edgeStyle=orthogonalEdgeStyle;rounded=0;orthogonalLoop=1;jettySize=auto;html=1;exitX=0.5;exitY=1;exitDx=0;exitDy=0;fontSize=9;" edge="1" parent="WIyWlLk6GJQsqaUBKTNV-1" source="5RLQBA7PYhz8EoI9WXOL-11" target="5RLQBA7PYhz8EoI9WXOL-11">
          <mxGeometry relative="1" as="geometry" />
        </mxCell>
        <mxCell id="5RLQBA7PYhz8EoI9WXOL-23" value="否" style="edgeStyle=orthogonalEdgeStyle;rounded=0;orthogonalLoop=1;jettySize=auto;html=1;fontSize=9;" edge="1" parent="WIyWlLk6GJQsqaUBKTNV-1" source="5RLQBA7PYhz8EoI9WXOL-25" target="5RLQBA7PYhz8EoI9WXOL-26">
          <mxGeometry relative="1" as="geometry" />
        </mxCell>
        <mxCell id="5RLQBA7PYhz8EoI9WXOL-24" style="edgeStyle=orthogonalEdgeStyle;rounded=0;orthogonalLoop=1;jettySize=auto;html=1;entryX=0.5;entryY=0;entryDx=0;entryDy=0;fontSize=9;" edge="1" parent="WIyWlLk6GJQsqaUBKTNV-1" source="5RLQBA7PYhz8EoI9WXOL-25" target="5RLQBA7PYhz8EoI9WXOL-29">
          <mxGeometry relative="1" as="geometry" />
        </mxCell>
        <mxCell id="5RLQBA7PYhz8EoI9WXOL-25" value="是否存在回调" style="rhombus;whiteSpace=wrap;html=1;fontSize=9;opacity=90;" vertex="1" parent="WIyWlLk6GJQsqaUBKTNV-1">
          <mxGeometry x="316" y="425" width="96" height="50" as="geometry" />
        </mxCell>
        <mxCell id="5RLQBA7PYhz8EoI9WXOL-26" value="上报处理结果" style="rounded=1;whiteSpace=wrap;html=1;fontSize=9;opacity=90;" vertex="1" parent="WIyWlLk6GJQsqaUBKTNV-1">
          <mxGeometry x="322" y="365" width="84" height="35" as="geometry" />
        </mxCell>
        <mxCell id="5RLQBA7PYhz8EoI9WXOL-27" value="上报处理结果" style="rounded=1;whiteSpace=wrap;html=1;fontSize=9;opacity=90;" vertex="1" parent="WIyWlLk6GJQsqaUBKTNV-1">
          <mxGeometry x="322" y="553" width="84" height="35" as="geometry" />
        </mxCell>
        <mxCell id="5RLQBA7PYhz8EoI9WXOL-28" style="edgeStyle=orthogonalEdgeStyle;rounded=0;orthogonalLoop=1;jettySize=auto;html=1;entryX=0.5;entryY=0;entryDx=0;entryDy=0;fontSize=9;" edge="1" parent="WIyWlLk6GJQsqaUBKTNV-1" source="5RLQBA7PYhz8EoI9WXOL-29" target="5RLQBA7PYhz8EoI9WXOL-27">
          <mxGeometry relative="1" as="geometry" />
        </mxCell>
        <mxCell id="5RLQBA7PYhz8EoI9WXOL-29" value="执行回调请求" style="rounded=1;whiteSpace=wrap;html=1;fontSize=9;opacity=90;" vertex="1" parent="WIyWlLk6GJQsqaUBKTNV-1">
          <mxGeometry x="322" y="497" width="84" height="35" as="geometry" />
        </mxCell>
        <mxCell id="5RLQBA7PYhz8EoI9WXOL-32" style="edgeStyle=orthogonalEdgeStyle;rounded=0;orthogonalLoop=1;jettySize=auto;html=1;entryX=0.5;entryY=0;entryDx=0;entryDy=0;" edge="1" parent="WIyWlLk6GJQsqaUBKTNV-1" source="5RLQBA7PYhz8EoI9WXOL-30" target="5RLQBA7PYhz8EoI9WXOL-11">
          <mxGeometry relative="1" as="geometry" />
        </mxCell>
        <mxCell id="5RLQBA7PYhz8EoI9WXOL-30" value="获取完整任务数据" style="rounded=1;whiteSpace=wrap;html=1;" vertex="1" parent="WIyWlLk6GJQsqaUBKTNV-1">
          <mxGeometry x="308.5" y="223" width="111" height="40" as="geometry" />
        </mxCell>
      </root>
    </mxGraphModel>
  </diagram>
</mxfile>
